<svg width="22" height="22" viewBox="0 0 22 22" fill="none" xmlns="http://www.w3.org/2000/svg">
<ellipse cx="11" cy="11.0218" rx="10.2539" ry="10.5533" fill="#6D5000"/>
<path d="M12.3672 0.468506H9.63281V1.94597H12.3672V0.468506Z" fill="#6D5000"/>
<path d="M12.3672 20.168H9.63281V21.5751H12.3672V20.168Z" fill="#6D5000"/>
<ellipse cx="11" cy="11.0218" rx="10.2539" ry="10.5533" fill="#FDC93A"/>
<ellipse cx="11" cy="11.0217" rx="8.20312" ry="8.44263" fill="#6D5000"/>
<path d="M14.2812 13.1589C14.2812 13.6166 14.1683 14.0469 13.9423 14.4497C13.7253 14.8525 13.3999 15.1912 12.966 15.4658C12.5412 15.7405 12.035 15.9053 11.4474 15.9602V17.0725H10.5661V15.9602C9.71643 15.8778 9.02944 15.6077 8.50517 15.15C7.98089 14.6923 7.71875 14.0881 7.71875 13.3374H9.37293C9.40005 13.6944 9.51304 13.992 9.71191 14.23C9.91077 14.4588 10.1955 14.6053 10.5661 14.6694V11.6484C9.96049 11.4928 9.46785 11.3371 9.0882 11.1815C8.70855 11.0167 8.38314 10.7604 8.11196 10.4125C7.84982 10.0647 7.71875 9.58863 7.71875 8.98443C7.71875 8.2246 7.98089 7.59752 8.50517 7.10317C9.02944 6.59967 9.71643 6.30673 10.5661 6.22434V5.11206H11.4474V6.22434C12.2429 6.29757 12.8802 6.5539 13.3592 6.99332C13.8474 7.42358 14.1231 8.01862 14.1863 8.77845H12.5322C12.505 8.49466 12.3966 8.24291 12.2067 8.0232C12.0169 7.79434 11.7638 7.63871 11.4474 7.55632V10.5224C12.0531 10.6689 12.5457 10.8245 12.9254 10.9893C13.305 11.1449 13.6259 11.3966 13.888 11.7445C14.1502 12.0832 14.2812 12.5547 14.2812 13.1589ZM9.29158 8.90204C9.29158 9.27737 9.40005 9.57032 9.61699 9.78087C9.84298 9.99142 10.1593 10.1608 10.5661 10.2889V7.51512C10.1774 7.5609 9.86557 7.70279 9.63055 7.94081C9.40457 8.17883 9.29158 8.49924 9.29158 8.90204ZM11.4474 14.6694C11.8452 14.6053 12.157 14.4451 12.383 14.1888C12.609 13.9233 12.722 13.6075 12.722 13.2413C12.722 12.8751 12.609 12.5913 12.383 12.3899C12.1661 12.1794 11.8542 12.01 11.4474 11.8818V14.6694Z" fill="#FCAE1D"/>
</svg>
