<svg width="25" height="25" viewBox="0 0 25 25" fill="none" xmlns="http://www.w3.org/2000/svg">
<g id="document-download">
<g id="vuesax/bold/document-download">
<g id="document-download_2">
<path id="Vector" d="M21 10.69H18.11C15.74 10.69 13.81 8.76 13.81 6.39V3.5C13.81 2.95 13.36 2.5 12.81 2.5H8.57C5.49 2.5 3 4.5 3 8.07V16.93C3 20.5 5.49 22.5 8.57 22.5H16.43C19.51 22.5 22 20.5 22 16.93V11.69C22 11.14 21.55 10.69 21 10.69ZM12.78 16.28L10.78 18.28C10.71 18.35 10.62 18.41 10.53 18.44C10.44 18.48 10.35 18.5 10.25 18.5C10.15 18.5 10.06 18.48 9.97 18.44C9.89 18.41 9.81 18.35 9.75 18.29C9.74 18.28 9.73 18.28 9.73 18.27L7.73 16.27C7.44 15.98 7.44 15.5 7.73 15.21C8.02 14.92 8.5 14.92 8.79 15.21L9.5 15.94V11.75C9.5 11.34 9.84 11 10.25 11C10.66 11 11 11.34 11 11.75V15.94L11.72 15.22C12.01 14.93 12.49 14.93 12.78 15.22C13.07 15.51 13.07 15.99 12.78 16.28Z" fill="#FFFAFB"/>
<path id="Vector_2" d="M17.9301 9.30999C18.8801 9.31999 20.2001 9.31999 21.3301 9.31999C21.9001 9.31999 22.2001 8.64999 21.8001 8.24999C20.3601 6.79999 17.7801 4.18999 16.3001 2.70999C15.8901 2.29999 15.1801 2.57999 15.1801 3.14999V6.63999C15.1801 8.09999 16.4201 9.30999 17.9301 9.30999Z" fill="#FFFAFB"/>
</g>
</g>
</g>
</svg>
