<svg width="24" height="28" viewBox="0 0 24 28" fill="none" xmlns="http://www.w3.org/2000/svg">
<g id="dollar-circle">
<g id="vuesax/bold/dollar-circle">
<g id="dollar-circle_2">
<path id="Vector" d="M12.75 18.1504H13.4C14.05 18.1504 14.59 17.5008 14.59 16.7168C14.59 15.7424 14.28 15.552 13.77 15.3504L12.76 14.9584V18.1504H12.75Z" fill="#FFFAFB"/>
<path id="Vector_2" d="M11.9701 2.44789C6.45007 2.47029 1.98007 7.49909 2.00007 13.6815C2.02007 19.8639 6.51007 24.8703 12.0301 24.8479C17.5501 24.8255 22.0201 19.7967 22.0001 13.6143C21.9801 7.43189 17.4901 2.43669 11.9701 2.44789ZM14.2601 13.7599C15.0401 14.0623 16.0901 14.7119 16.0901 16.7167C16.0901 18.4415 14.8801 19.8303 13.4001 19.8303H12.7501V20.4799C12.7501 20.9391 12.4101 21.3199 12.0001 21.3199C11.5901 21.3199 11.2501 20.9391 11.2501 20.4799V19.8303H10.8901C9.25007 19.8303 7.92007 18.2847 7.92007 16.3807C7.92007 15.9215 8.26007 15.5407 8.67007 15.5407C9.08007 15.5407 9.42007 15.9215 9.42007 16.3807C9.42007 17.3551 10.0801 18.1503 10.8901 18.1503H11.2501V14.3647L9.74007 13.7599C8.96007 13.4575 7.91007 12.8079 7.91007 10.8031C7.91007 9.07829 9.12007 7.68949 10.6001 7.68949H11.2501V7.03989C11.2501 6.58069 11.5901 6.19989 12.0001 6.19989C12.4101 6.19989 12.7501 6.58069 12.7501 7.03989V7.68949H13.1101C14.7501 7.68949 16.0801 9.23509 16.0801 11.1391C16.0801 11.5983 15.7401 11.9791 15.3301 11.9791C14.9201 11.9791 14.5801 11.5983 14.5801 11.1391C14.5801 10.1647 13.9201 9.36949 13.1101 9.36949H12.7501V13.1551L14.2601 13.7599Z" fill="#FFFAFB"/>
<path id="Vector_3" d="M9.41992 10.8143C9.41992 11.7887 9.72992 11.9791 10.2399 12.1807L11.2499 12.5727V9.36951H10.5999C9.94992 9.36951 9.41992 10.0191 9.41992 10.8143Z" fill="#FFFAFB"/>
</g>
</g>
</g>
</svg>
