<svg width="25" height="24" viewBox="0 0 25 24" fill="none" xmlns="http://www.w3.org/2000/svg">
<g id="gameboy">
<g id="vuesax/bold/gameboy">
<g id="gameboy_2">
<path id="Vector" d="M17.2002 2H7.2002C5.0002 2 3.2002 3.8 3.2002 6V18C3.2002 20.2 5.0002 22 7.2002 22H17.2002C19.4002 22 21.2002 20.2 21.2002 18V6C21.2002 3.8 19.4002 2 17.2002 2ZM11.0602 18.14C10.9102 18.29 10.7202 18.36 10.5302 18.36C10.3402 18.36 10.1502 18.29 10.0002 18.14L9.35019 17.49L8.7302 18.11C8.5802 18.26 8.3902 18.33 8.2002 18.33C8.0102 18.33 7.8202 18.26 7.6702 18.11C7.3802 17.82 7.3802 17.34 7.6702 17.05L8.2902 16.43L7.7002 15.84C7.4102 15.55 7.4102 15.07 7.7002 14.78C7.9902 14.49 8.4702 14.49 8.7602 14.78L9.35019 15.37L9.9702 14.75C10.2602 14.46 10.7402 14.46 11.0302 14.75C11.3202 15.04 11.3202 15.52 11.0302 15.81L10.4102 16.43L11.0602 17.08C11.3502 17.37 11.3502 17.85 11.0602 18.14ZM14.6902 18.49C14.1402 18.49 13.6902 18.05 13.6902 17.5V17.48C13.6902 16.93 14.1402 16.48 14.6902 16.48C15.2402 16.48 15.6902 16.93 15.6902 17.48C15.6902 18.03 15.2402 18.49 14.6902 18.49ZM16.7102 16.33C16.1602 16.33 15.7002 15.88 15.7002 15.33C15.7002 14.78 16.1402 14.33 16.6902 14.33H16.7102C17.2602 14.33 17.7102 14.78 17.7102 15.33C17.7102 15.88 17.2602 16.33 16.7102 16.33ZM18.2002 9.25C18.2002 10.21 17.4102 11 16.4502 11H7.9502C6.9902 11 6.2002 10.21 6.2002 9.25V6.75C6.2002 5.79 6.9902 5 7.9502 5H16.4502C17.4102 5 18.2002 5.79 18.2002 6.75V9.25Z" fill="#676D75"/>
</g>
</g>
</g>
</svg>
