<svg width="30" height="30" viewBox="0 0 30 30" fill="none" xmlns="http://www.w3.org/2000/svg">
<g id="game">
<g id="vuesax/bold/game">
<g id="game_2">
<path id="Vector" d="M20.8125 7.15002H9.1875C5.5 7.15002 2.5 10.15 2.5 13.8375V20.8125C2.5 24.5 5.5 27.5 9.1875 27.5H20.8125C24.5 27.5 27.5 24.5 27.5 20.8125V13.8375C27.5 10.15 24.5 7.15002 20.8125 7.15002ZM18.125 15.025C18.125 14.3375 18.6875 13.775 19.375 13.775C20.0625 13.775 20.625 14.3375 20.625 15.025C20.625 15.7125 20.0625 16.2875 19.375 16.2875C18.6875 16.2875 18.125 15.7375 18.125 15.05V15.025ZM12.6625 20.0875C12.475 20.275 12.2375 20.3625 12 20.3625C11.7625 20.3625 11.525 20.275 11.3375 20.0875L10.05 18.8L8.8125 20.0375C8.625 20.225 8.3875 20.3125 8.15 20.3125C7.9125 20.3125 7.675 20.225 7.4875 20.0375C7.125 19.675 7.125 19.075 7.4875 18.7125L8.725 17.475L7.525 16.275C7.1625 15.9125 7.1625 15.3125 7.525 14.95C7.8875 14.5875 8.4875 14.5875 8.85 14.95L10.05 16.15L11.2875 14.9125C11.65 14.55 12.25 14.55 12.6125 14.9125C12.975 15.275 12.975 15.875 12.6125 16.2375L11.375 17.475L12.6625 18.7625C13.025 19.125 13.025 19.725 12.6625 20.0875ZM16.925 18.75C16.2375 18.75 15.6625 18.1875 15.6625 17.5C15.6625 16.8125 16.2125 16.25 16.9 16.25H16.925C17.6125 16.25 18.175 16.8125 18.175 17.5C18.175 18.1875 17.625 18.75 16.925 18.75ZM19.375 21.2125C18.6875 21.2125 18.125 20.6625 18.125 19.975V19.95C18.125 19.2625 18.6875 18.7 19.375 18.7C20.0625 18.7 20.625 19.2625 20.625 19.95C20.625 20.6375 20.075 21.2125 19.375 21.2125ZM21.85 18.75C21.1625 18.75 20.5875 18.1875 20.5875 17.5C20.5875 16.8125 21.1375 16.25 21.825 16.25H21.85C22.5375 16.25 23.1 16.8125 23.1 17.5C23.1 18.1875 22.55 18.75 21.85 18.75Z" fill="#292D32"/>
<path id="Vector_2" d="M17.05 3.3875L17.0375 4.5625C17.025 5.6625 16.1125 6.575 15 6.575C14.8125 6.575 14.7 6.7 14.7 6.8625C14.7 7.025 14.825 7.15 14.9875 7.15H12.975C12.9625 7.0625 12.95 6.9625 12.95 6.8625C12.95 5.7375 13.8625 4.825 14.975 4.825C15.1625 4.825 15.2875 4.7 15.2875 4.5375L15.3 3.3625C15.3125 2.8875 15.7 2.5 16.175 2.5H16.1875C16.675 2.5 17.05 2.9 17.05 3.3875Z" fill="#292D32"/>
</g>
</g>
</g>
</svg>
