<svg width="25" height="24" viewBox="0 0 25 24" fill="none" xmlns="http://www.w3.org/2000/svg">
<path d="M20.6401 6.81994L14.8801 2.78994C13.3101 1.68994 10.9001 1.74994 9.39009 2.91994L4.38009 6.82994C3.38009 7.60994 2.59009 9.20994 2.59009 10.4699V17.3699C2.59009 19.9199 4.66009 21.9999 7.21009 21.9999H17.9901C20.5401 21.9999 22.6101 19.9299 22.6101 17.3799V10.5999C22.6101 9.24994 21.7401 7.58994 20.6401 6.81994ZM13.3501 17.9999C13.3501 18.4099 13.0101 18.7499 12.6001 18.7499C12.1901 18.7499 11.8501 18.4099 11.8501 17.9999V14.9999C11.8501 14.5899 12.1901 14.2499 12.6001 14.2499C13.0101 14.2499 13.3501 14.5899 13.3501 14.9999V17.9999Z" fill="#5263FF"/>
</svg>
