<svg width="24" height="28" viewBox="0 0 24 28" fill="none" xmlns="http://www.w3.org/2000/svg">
<g id="link">
<g id="vuesax/bold/link">
<g id="link_2">
<path id="Vector" d="M7.24989 14.04C7.24989 13.5808 7.58989 13.2 7.99989 13.2H10.9999V9C10.9999 8.384 10.5499 7.88 9.99989 7.88H7.76989C4.61989 7.88 1.87989 10.7696 1.99989 14.2864C2.05989 15.888 2.65989 17.3328 3.60989 18.3968C4.60989 19.5056 5.97989 20.2 7.49989 20.2H9.99989C10.5499 20.2 10.9999 19.696 10.9999 19.08V14.88H7.99989C7.58989 14.88 7.24989 14.4992 7.24989 14.04Z" fill="#FFFAFB"/>
<path id="Vector_2" d="M20.39 9.6832C19.39 8.5744 18.02 7.88 16.5 7.88H14C13.45 7.88 13 8.384 13 9V13.2H16C16.41 13.2 16.75 13.5808 16.75 14.04C16.75 14.4992 16.41 14.88 16 14.88H13V19.08C13 19.696 13.45 20.2 14 20.2H16.23C19.38 20.2 22.12 17.3104 21.99 13.7936C21.94 12.192 21.33 10.7472 20.39 9.6832Z" fill="#FFFAFB"/>
<path id="Vector_3" d="M13 13.2H11V14.88H13V13.2Z" fill="#FFFAFB"/>
</g>
</g>
</g>
</svg>
