<svg width="24" height="27" viewBox="0 0 24 27" fill="none" xmlns="http://www.w3.org/2000/svg">
<g id="map">
<g id="vuesax/bold/map">
<g id="map_2">
<path id="Vector" d="M9.1499 8.38879C8.5899 8.38879 8.1499 8.89279 8.1499 9.50879C8.1499 10.1248 8.5999 10.6288 9.1499 10.6288C9.6999 10.6288 10.1499 10.1248 10.1499 9.50879C10.1499 8.89279 9.6999 8.38879 9.1499 8.38879Z" fill="#FFFAFB"/>
<path id="Vector_2" d="M21.46 5.64479C20.62 3.46079 18.77 2.23999 16.19 2.23999H7.81C4.6 2.23999 2 5.15199 2 8.74719V18.1328C2 21.0224 3.09 23.0944 5.04 24.0352C5.23 24.1248 5.45 24.0688 5.59 23.912L21.35 6.26079C21.5 6.09279 21.55 5.84639 21.46 5.64479ZM10.53 13.7088C10.14 14.1344 9.63 14.336 9.12 14.336C8.61 14.336 8.1 14.1232 7.71 13.7088C6.69 12.6336 5.57 10.92 6 8.88159C6.38 7.03359 7.84 6.20479 9.12 6.20479C10.4 6.20479 11.86 7.03359 12.24 8.89279C12.66 10.92 11.54 12.6336 10.53 13.7088Z" fill="#FFFAFB"/>
<path id="Vector_3" d="M19.4699 22.9936C19.6899 23.24 19.6599 23.6432 19.3899 23.8112C18.5099 24.36 17.4399 24.64 16.1899 24.64H7.8099C7.5199 24.64 7.3999 24.2592 7.5999 24.0352L13.6399 17.2704C13.8399 17.0464 14.1499 17.0464 14.3499 17.2704L19.4699 22.9936Z" fill="#FFFAFB"/>
<path id="Vector_4" d="M22 8.74724V18.1328C22 19.5328 21.75 20.7424 21.26 21.7168C21.11 22.0192 20.75 22.0416 20.53 21.8064L15.41 16.072C15.21 15.848 15.21 15.5008 15.41 15.2768L21.45 8.51204C21.66 8.28804 22 8.42244 22 8.74724Z" fill="#FFFAFB"/>
</g>
</g>
</g>
</svg>
