<svg width="30" height="30" viewBox="0 0 30 30" fill="none" xmlns="http://www.w3.org/2000/svg">
<g id="people">
<g id="vuesax/bold/people">
<g id="people_2">
<path id="Vector" d="M21.9123 9.7125C21.8248 9.7 21.7373 9.7 21.6498 9.7125C19.7123 9.65 18.1748 8.0625 18.1748 6.1125C18.1748 4.125 19.7873 2.5 21.7873 2.5C23.7748 2.5 25.3998 4.1125 25.3998 6.1125C25.3873 8.0625 23.8498 9.65 21.9123 9.7125Z" fill="#FFFAFB"/>
<path id="Vector_2" d="M25.9875 18.375C24.5875 19.3125 22.625 19.6625 20.8125 19.425C21.2875 18.4 21.5375 17.2625 21.55 16.0625C21.55 14.8125 21.275 13.625 20.75 12.5875C22.6 12.3375 24.5625 12.6875 25.975 13.625C27.95 14.925 27.95 17.0625 25.9875 18.375Z" fill="#FFFAFB"/>
<path id="Vector_3" d="M8.05019 9.7125C8.13769 9.7 8.22519 9.7 8.3127 9.7125C10.2502 9.65 11.7877 8.0625 11.7877 6.1125C11.7877 4.1125 10.1752 2.5 8.17519 2.5C6.18769 2.5 4.5752 4.1125 4.5752 6.1125C4.5752 8.0625 6.1127 9.65 8.05019 9.7125Z" fill="#FFFAFB"/>
<path id="Vector_4" d="M8.18789 16.0623C8.18789 17.2748 8.45039 18.4248 8.92539 19.4623C7.16289 19.6498 5.32539 19.2748 3.97539 18.3873C2.00039 17.0748 2.00039 14.9373 3.97539 13.6248C5.31289 12.7248 7.20039 12.3623 8.97539 12.5623C8.46289 13.6123 8.18789 14.7998 8.18789 16.0623Z" fill="#FFFAFB"/>
<path id="Vector_5" d="M15.15 19.8375C15.05 19.825 14.9375 19.825 14.825 19.8375C12.525 19.7625 10.6875 17.875 10.6875 15.55C10.7 13.175 12.6125 11.25 15 11.25C17.375 11.25 19.3 13.175 19.3 15.55C19.2875 17.875 17.4625 19.7625 15.15 19.8375Z" fill="#FFFAFB"/>
<path id="Vector_6" d="M11.0875 22.4248C9.2 23.6873 9.2 25.7623 11.0875 27.0123C13.2375 28.4498 16.7625 28.4498 18.9125 27.0123C20.8 25.7498 20.8 23.6748 18.9125 22.4248C16.775 20.9873 13.25 20.9873 11.0875 22.4248Z" fill="#FFFAFB"/>
</g>
</g>
</g>
</svg>
