<svg width="48" height="48" viewBox="0 0 48 48" fill="none" xmlns="http://www.w3.org/2000/svg">
<path id="Polygon 33" d="M20.2686 2.90686C21.8483 2.14612 22.4721 1.85511 23.1072 1.73985C23.6976 1.63271 24.3024 1.63271 24.8928 1.73985C25.5279 1.85511 26.1517 2.14612 27.7314 2.90686L38.9466 8.30783C40.5263 9.06857 41.1427 9.3748 41.6289 9.79953C42.0807 10.1943 42.4578 10.6672 42.7422 11.1955C43.0481 11.764 43.2094 12.4331 43.5996 14.1425L46.3695 26.2783C46.7597 27.9877 46.9046 28.6606 46.8756 29.3055C46.8487 29.9049 46.7141 30.4945 46.4783 31.0463L47.3978 31.4393L46.4783 31.0463C46.2246 31.6399 45.8021 32.1832 44.7089 33.554L36.9477 43.2862C35.8545 44.6571 35.4188 45.1899 34.8966 45.5693C34.4112 45.922 33.8662 46.1844 33.2878 46.344C32.6656 46.5158 31.9773 46.5242 30.224 46.5242H17.776C16.0227 46.5242 15.3344 46.5158 14.7122 46.344C14.1338 46.1844 13.5888 45.922 13.1034 45.5693C12.5812 45.1899 12.1455 44.6571 11.0523 43.2862L3.2911 33.554C2.19791 32.1832 1.7754 31.6399 1.52169 31.0463C1.28587 30.4945 1.15129 29.9049 1.12437 29.3055C1.09541 28.6606 1.24032 27.9877 1.63047 26.2783L4.4004 14.1425C4.79055 12.4331 4.95194 11.764 5.25784 11.1955C5.54217 10.6672 5.91927 10.1943 6.37112 9.79953C6.85726 9.3748 7.47368 9.06857 9.05338 8.30783L20.2686 2.90686Z" fill="#FFE32D" stroke="#5263FF" stroke-width="2"/>
</svg>
