<svg width="25" height="24" viewBox="0 0 25 24" fill="none" xmlns="http://www.w3.org/2000/svg">
<g id="ranking">
<g id="vuesax/bold/ranking">
<g id="ranking_2">
<path id="Vector" d="M7.47005 14H4.80005C3.70005 14 2.80005 14.9 2.80005 16V21C2.80005 21.55 3.25005 22 3.80005 22H7.47005C8.02005 22 8.47005 21.55 8.47005 21V15C8.47005 14.45 8.02005 14 7.47005 14Z" fill="#676D75"/>
<path id="Vector_2" d="M14.13 10H11.46C10.36 10 9.45996 10.9 9.45996 12V21C9.45996 21.55 9.90996 22 10.46 22H15.13C15.68 22 16.13 21.55 16.13 21V12C16.13 10.9 15.24 10 14.13 10Z" fill="#676D75"/>
<path id="Vector_3" d="M20.8001 17H18.1301C17.5801 17 17.1301 17.45 17.1301 18V21C17.1301 21.55 17.5801 22 18.1301 22H21.8001C22.3501 22 22.8001 21.55 22.8001 21V19C22.8001 17.9 21.9001 17 20.8001 17Z" fill="#676D75"/>
<path id="Vector_4" d="M15.81 4.84998C16.12 4.53998 16.24 4.16998 16.14 3.84998C16.04 3.52998 15.73 3.29998 15.29 3.22998L14.33 3.06998C14.29 3.06998 14.2 2.99998 14.18 2.95998L13.65 1.89998C13.25 1.08998 12.34 1.08998 11.94 1.89998L11.41 2.95998C11.4 2.99998 11.31 3.06998 11.27 3.06998L10.31 3.22998C9.86999 3.29998 9.56999 3.52998 9.45999 3.84998C9.35999 4.16998 9.47999 4.53998 9.78999 4.84998L10.53 5.59998C10.57 5.62998 10.6 5.74998 10.59 5.78998L10.38 6.70998C10.22 7.39998 10.48 7.70998 10.65 7.82998C10.82 7.94998 11.19 8.10998 11.8 7.74998L12.7 7.21998C12.74 7.18998 12.87 7.18998 12.91 7.21998L13.8 7.74998C14.08 7.91998 14.31 7.96998 14.49 7.96998C14.7 7.96998 14.85 7.88998 14.94 7.82998C15.11 7.70998 15.37 7.39998 15.21 6.70998L15 5.78998C14.99 5.73998 15.02 5.62998 15.06 5.59998L15.81 4.84998Z" fill="#676D75"/>
</g>
</g>
</g>
</svg>
