<svg width="30" height="30" viewBox="0 0 30 30" fill="none" xmlns="http://www.w3.org/2000/svg">
<g id="search-normal">
<g id="vuesax/bold/search-normal">
<g id="search-normal_2">
<path id="Vector" d="M14.375 26.25C20.9334 26.25 26.25 20.9334 26.25 14.375C26.25 7.81662 20.9334 2.5 14.375 2.5C7.81662 2.5 2.5 7.81662 2.5 14.375C2.5 20.9334 7.81662 26.25 14.375 26.25Z" fill="#FFFAFB"/>
<path id="Vector_2" d="M26.6249 27.5C26.3999 27.5 26.1749 27.4124 26.0124 27.2499L23.6875 24.925C23.35 24.5875 23.35 24.0375 23.6875 23.6875C24.025 23.35 24.575 23.35 24.925 23.6875L27.2499 26.0124C27.5875 26.3499 27.5875 26.8999 27.2499 27.2499C27.0749 27.4124 26.8499 27.5 26.6249 27.5Z" fill="#FFFAFB"/>
</g>
</g>
</g>
</svg>
