<svg width="24" height="24" viewBox="0 0 24 24" fill="none" xmlns="http://www.w3.org/2000/svg">
<g id="share">
<g id="vuesax/bold/share">
<g id="share_2">
<path id="Vector" d="M20.36 12.7299C19.99 12.7299 19.68 12.45 19.64 12.08C19.4 9.87995 18.22 7.89995 16.4 6.63995C16.07 6.40995 15.99 5.95995 16.22 5.62995C16.45 5.29995 16.9 5.21995 17.23 5.44995C19.4 6.95995 20.8 9.31995 21.09 11.93C21.13 12.33 20.84 12.6899 20.44 12.7299C20.41 12.7299 20.39 12.7299 20.36 12.7299Z" fill="#FFFAFB"/>
<path id="Vector_2" d="M3.74004 12.78C3.72004 12.78 3.69004 12.78 3.67004 12.78C3.27004 12.74 2.98004 12.38 3.02004 11.98C3.29004 9.36996 4.67004 7.00996 6.82004 5.48996C7.14004 5.25996 7.60004 5.33996 7.83004 5.65996C8.06004 5.98996 7.98004 6.43996 7.66004 6.66996C5.86004 7.94996 4.69004 9.92996 4.47004 12.12C4.43004 12.5 4.11004 12.78 3.74004 12.78Z" fill="#FFFAFB"/>
<path id="Vector_3" d="M15.99 21.1C14.76 21.69 13.44 21.99 12.06 21.99C10.62 21.99 9.24998 21.67 7.96998 21.02C7.60998 20.85 7.46998 20.41 7.64998 20.05C7.81998 19.69 8.25998 19.55 8.61998 19.72C9.24998 20.04 9.91998 20.26 10.6 20.39C11.52 20.57 12.46 20.58 13.38 20.42C14.06 20.3 14.73 20.09 15.35 19.79C15.72 19.62 16.16 19.76 16.32 20.13C16.5 20.49 16.36 20.93 15.99 21.1Z" fill="#FFFAFB"/>
<path id="Vector_4" d="M12.05 2.01001C10.5 2.01001 9.22998 3.27001 9.22998 4.83001C9.22998 6.39001 10.49 7.65001 12.05 7.65001C13.61 7.65001 14.87 6.39001 14.87 4.83001C14.87 3.27001 13.61 2.01001 12.05 2.01001Z" fill="#FFFAFB"/>
<path id="Vector_5" d="M5.04998 13.87C3.49998 13.87 2.22998 15.13 2.22998 16.69C2.22998 18.25 3.48998 19.51 5.04998 19.51C6.60998 19.51 7.86998 18.25 7.86998 16.69C7.86998 15.13 6.59998 13.87 5.04998 13.87Z" fill="#FFFAFB"/>
<path id="Vector_6" d="M18.95 13.87C17.4 13.87 16.13 15.13 16.13 16.69C16.13 18.25 17.39 19.51 18.95 19.51C20.51 19.51 21.77 18.25 21.77 16.69C21.77 15.13 20.51 13.87 18.95 13.87Z" fill="#FFFAFB"/>
</g>
</g>
</g>
</svg>
