<svg width="56" height="57" viewBox="0 0 56 57" fill="none" xmlns="http://www.w3.org/2000/svg">
<circle cx="28" cy="28.5" r="28" fill="#FFE32D" fill-opacity="0.2"/>
<path d="M27.5 15.1666C20.1533 15.1666 14.1666 21.1533 14.1666 28.5C14.1666 35.8466 20.1533 41.8333 27.5 41.8333C34.8466 41.8333 40.8333 35.8466 40.8333 28.5C40.8333 21.1533 34.8466 15.1666 27.5 15.1666ZM33.8733 25.4333L26.3133 32.9933C26.1266 33.18 25.8733 33.2866 25.6066 33.2866C25.34 33.2866 25.0866 33.18 24.9 32.9933L21.1266 29.22C20.74 28.8333 20.74 28.1933 21.1266 27.8066C21.5133 27.42 22.1533 27.42 22.54 27.8066L25.6066 30.8733L32.46 24.02C32.8466 23.6333 33.4866 23.6333 33.8733 24.02C34.26 24.4066 34.26 25.0333 33.8733 25.4333Z" fill="#FFE32D"/>
</svg>
