<svg width="25" height="24" viewBox="0 0 25 24" fill="none" xmlns="http://www.w3.org/2000/svg">
<g id="ticket-star">
<g id="vuesax/bold/ticket-star">
<g id="ticket-star_2">
<path id="Vector" d="M17.0503 3.86011H10.3103V6.88011C10.3103 7.27011 9.99026 7.58011 9.61026 7.58011C9.23026 7.58011 8.91026 7.27011 8.91026 6.88011V3.86011H7.75026C3.80026 3.86011 2.50026 5.04011 2.41026 8.73011C2.40026 8.91011 2.48026 9.10011 2.61026 9.23011C2.74026 9.37011 2.91026 9.44011 3.11026 9.44011C4.51026 9.44011 5.66026 10.6001 5.66026 12.0001C5.66026 13.4001 4.51026 14.5601 3.11026 14.5601C2.92026 14.5601 2.74026 14.6301 2.61026 14.7701C2.48026 14.9001 2.40026 15.0901 2.41026 15.2701C2.50026 18.9601 3.80026 20.1401 7.75026 20.1401H8.91026V17.1201C8.91026 16.7301 9.23026 16.4201 9.61026 16.4201C9.99026 16.4201 10.3103 16.7301 10.3103 17.1201V20.1401H17.0503C21.1503 20.1401 22.4003 18.8901 22.4003 14.7901V9.21011C22.4003 5.11011 21.1503 3.86011 17.0503 3.86011ZM18.8703 11.9001L17.9403 12.8001C17.9003 12.8301 17.8903 12.8901 17.9003 12.9401L18.1203 14.2101C18.1603 14.4401 18.0703 14.6801 17.8703 14.8201C17.6803 14.9601 17.4303 14.9801 17.2203 14.8701L16.0703 14.2701C16.0303 14.2501 15.9703 14.2501 15.9303 14.2701L14.7803 14.8701C14.6903 14.9201 14.5903 14.9401 14.4903 14.9401C14.3603 14.9401 14.2403 14.9001 14.1303 14.8201C13.9403 14.6801 13.8403 14.4501 13.8803 14.2101L14.1003 12.9401C14.1103 12.8901 14.0903 12.8401 14.0603 12.8001L13.1303 11.9001C12.9603 11.7401 12.9003 11.4901 12.9703 11.2701C13.0403 11.0401 13.2303 10.8801 13.4703 10.8501L14.7503 10.6601C14.8003 10.6501 14.8403 10.6201 14.8703 10.5801L15.4403 9.42011C15.5503 9.21011 15.7603 9.08011 16.0003 9.08011C16.2403 9.08011 16.4503 9.21011 16.5503 9.42011L17.1203 10.5801C17.1403 10.6301 17.1803 10.6601 17.2303 10.6601L18.5103 10.8501C18.7503 10.8801 18.9403 11.0501 19.0103 11.2701C19.1003 11.4901 19.0403 11.7301 18.8703 11.9001Z" fill="#676D75"/>
</g>
</g>
</g>
</svg>
