<svg width="30" height="30" viewBox="0 0 30 30" fill="none" xmlns="http://www.w3.org/2000/svg">
<g id="user-cirlce-add">
<g id="vuesax/bold/user-cirlce-add">
<g id="user-cirlce-add_2">
<path id="Vector" d="M27.4625 2.9125C26.5625 1.8875 25.225 1.25 23.75 1.25C22.35 1.25 21.075 1.825 20.1625 2.7625C19.6375 3.3 19.2375 3.95 19 4.675C18.8375 5.175 18.75 5.7 18.75 6.25C18.75 7.1875 19.0125 8.075 19.475 8.825C19.725 9.25 20.05 9.6375 20.425 9.9625C21.3 10.7625 22.4625 11.25 23.75 11.25C24.3 11.25 24.825 11.1625 25.3125 10.9875C26.4625 10.625 27.425 9.8375 28.025 8.825C28.2875 8.4 28.4875 7.9125 28.6 7.4125C28.7 7.0375 28.75 6.65 28.75 6.25C28.75 4.975 28.2625 3.8 27.4625 2.9125ZM25.6125 7.1625H24.6875V8.1375C24.6875 8.65 24.2625 9.075 23.75 9.075C23.2375 9.075 22.8125 8.65 22.8125 8.1375V7.1625H21.8875C21.375 7.1625 20.95 6.7375 20.95 6.225C20.95 5.7125 21.375 5.2875 21.8875 5.2875H22.8125V4.4C22.8125 3.8875 23.2375 3.4625 23.75 3.4625C24.2625 3.4625 24.6875 3.8875 24.6875 4.4V5.2875H25.6125C26.125 5.2875 26.55 5.7125 26.55 6.225C26.55 6.7375 26.1375 7.1625 25.6125 7.1625Z" fill="#FFFAFB"/>
<path id="Vector_2" d="M27.5 15C27.5 13.3625 27.1875 11.7875 26.6 10.35C26.2125 10.625 25.775 10.8375 25.3125 10.9875C25.175 11.0375 25.0375 11.075 24.8875 11.1125C25.3625 12.3125 25.625 13.625 25.625 15C25.625 17.9 24.45 20.5375 22.55 22.4625C22.1875 22 21.725 21.575 21.175 21.2125C17.7875 18.9375 12.2375 18.9375 8.825 21.2125C8.275 21.575 7.825 22 7.45 22.4625C5.55 20.5375 4.375 17.9 4.375 15C4.375 9.1375 9.1375 4.375 15 4.375C16.3625 4.375 17.675 4.6375 18.875 5.1125C18.9125 4.9625 18.95 4.825 19 4.675C19.15 4.2125 19.3625 3.7875 19.65 3.4C18.2125 2.8125 16.6375 2.5 15 2.5C8.1125 2.5 2.5 8.1125 2.5 15C2.5 18.625 4.0625 21.8875 6.5375 24.175C6.5375 24.1875 6.5375 24.1875 6.525 24.2C6.65 24.325 6.8 24.425 6.925 24.5375C7 24.6 7.0625 24.6625 7.1375 24.7125C7.3625 24.9 7.6125 25.075 7.85 25.25C7.9375 25.3125 8.0125 25.3625 8.1 25.425C8.3375 25.5875 8.5875 25.7375 8.85 25.875C8.9375 25.925 9.0375 25.9875 9.125 26.0375C9.375 26.175 9.6375 26.3 9.9125 26.4125C10.0125 26.4625 10.1125 26.5125 10.2125 26.55C10.4875 26.6625 10.7625 26.7625 11.0375 26.85C11.1375 26.8875 11.2375 26.925 11.3375 26.95C11.6375 27.0375 11.9375 27.1125 12.2375 27.1875C12.325 27.2125 12.4125 27.2375 12.5125 27.25C12.8625 27.325 13.2125 27.375 13.575 27.4125C13.625 27.4125 13.675 27.425 13.725 27.4375C14.15 27.475 14.575 27.5 15 27.5C15.425 27.5 15.85 27.475 16.2625 27.4375C16.3125 27.4375 16.3625 27.425 16.4125 27.4125C16.775 27.375 17.125 27.325 17.475 27.25C17.5625 27.2375 17.65 27.2 17.75 27.1875C18.05 27.1125 18.3625 27.05 18.65 26.95C18.75 26.9125 18.85 26.875 18.95 26.85C19.225 26.75 19.5125 26.6625 19.775 26.55C19.875 26.5125 19.975 26.4625 20.075 26.4125C20.3375 26.3 20.6 26.175 20.8625 26.0375C20.9625 25.9875 21.05 25.925 21.1375 25.875C21.3875 25.725 21.6375 25.5875 21.8875 25.425C21.975 25.375 22.05 25.3125 22.1375 25.25C22.3875 25.075 22.625 24.9 22.85 24.7125C22.925 24.65 22.9875 24.5875 23.0625 24.5375C23.2 24.425 23.3375 24.3125 23.4625 24.2C23.4625 24.1875 23.4625 24.1875 23.45 24.175C25.9375 21.8875 27.5 18.625 27.5 15Z" fill="#FFFAFB"/>
<path id="Vector_3" d="M15 8.6626C12.4125 8.6626 10.3125 10.7626 10.3125 13.3501C10.3125 15.8876 12.3 17.9501 14.9375 18.0251C14.975 18.0251 15.025 18.0251 15.05 18.0251C15.075 18.0251 15.1125 18.0251 15.1375 18.0251C15.15 18.0251 15.1625 18.0251 15.1625 18.0251C17.6875 17.9376 19.675 15.8876 19.6875 13.3501C19.6875 10.7626 17.5875 8.6626 15 8.6626Z" fill="#FFFAFB"/>
</g>
</g>
</g>
</svg>
