<svg width="20" height="20" viewBox="0 0 20 20" fill="none" xmlns="http://www.w3.org/2000/svg">
<g id="vektor" clip-path="url(#clip0_195_123)">
<path id="Vector" d="M7.96862 1.23851C8.8194 -0.412835 11.1804 -0.412835 12.0312 1.23851C12.5424 2.23077 13.6957 2.70848 14.7588 2.36832C16.5281 1.80223 18.1977 3.47173 17.6315 5.241C17.2913 6.30412 17.769 7.45742 18.7613 7.96862C20.4127 8.8194 20.4127 11.1804 18.7613 12.0312C17.769 12.5424 17.2913 13.6957 17.6315 14.7588C18.1977 16.5281 16.5281 18.1977 14.7588 17.6315C13.6957 17.2913 12.5424 17.769 12.0312 18.7613C11.1804 20.4127 8.8194 20.4127 7.96862 18.7613C7.45742 17.769 6.30412 17.2913 5.241 17.6315C3.47173 18.1977 1.80223 16.5281 2.36832 14.7588C2.70848 13.6957 2.23077 12.5424 1.23851 12.0312C-0.412835 11.1804 -0.412835 8.8194 1.23851 7.96862C2.23077 7.45742 2.70848 6.30412 2.36832 5.241C1.80223 3.47173 3.47173 1.80223 5.241 2.36832C6.30412 2.70848 7.45742 2.23077 7.96862 1.23851Z" fill="#FEDA03"/>
<path id="Vector_2" fill-rule="evenodd" clip-rule="evenodd" d="M14.0659 7.06689C14.4103 7.39896 14.4203 7.94731 14.0882 8.29166L9.00997 13.558L5.91162 10.3449C5.57955 10.0005 5.58952 9.45214 5.93389 9.12008C6.27825 8.78803 6.8266 8.79799 7.15867 9.14234L9.00997 11.0622L12.8412 7.08916C13.1732 6.74479 13.7216 6.73483 14.0659 7.06689Z" fill="black"/>
</g>
<defs>
<clipPath id="clip0_195_123">
<rect width="20" height="20" fill="white"/>
</clipPath>
</defs>
</svg>
